<?xml version="1.0" standalone="no"?>
<!DOCTYPE svg PUBLIC "-//W3C//DTD SVG 20010904//EN"
 "http://www.w3.org/TR/2001/REC-SVG-20010904/DTD/svg10.dtd">
<svg version="1.0" xmlns="http://www.w3.org/2000/svg"
 width="643.000000pt" height="348.000000pt" viewBox="0 0 643.000000 348.000000"
 preserveAspectRatio="xMidYMid meet">
<metadata>
Created by potrace 1.16, written by Peter Selinger 2001-2019
</metadata>
<g transform="translate(0.000000,348.000000) scale(0.100000,-0.100000)"
fill="#000000" stroke="none">
<path d="M2995 3105 c-36 -35 -35 -96 1 -124 58 -45 134 -11 134 60 0 50 -35
89 -80 89 -19 0 -40 -9 -55 -25z"/>
<path d="M3240 3045 c-33 -35 -31 -81 4 -112 34 -28 65 -29 100 -2 20 16 26
29 26 59 0 71 -82 106 -130 55z"/>
<path d="M2890 2927 l-25 -13 -3 -217 -2 -217 24 -6 c14 -3 30 -3 35 1 8 4 11
-66 11 -230 l0 -235 323 2 322 3 3 25 c1 14 -29 114 -68 224 l-70 199 0 213 0
214 -105 0 c-77 0 -106 4 -112 14 -13 21 -49 36 -87 36 l-36 0 0 -94 c0 -116
-3 -126 -44 -126 -50 0 -56 13 -56 122 l0 98 -42 0 c-24 0 -54 -6 -68 -13z
m520 -214 c0 -86 -2 -154 -4 -152 -2 2 -16 34 -30 71 -23 63 -24 70 -11 103
18 42 18 45 1 45 -7 0 -19 -19 -26 -43 -11 -43 -10 -50 100 -358 62 -173 113
-321 114 -329 0 -8 -6 -15 -14 -15 -9 0 -14 7 -12 18 2 11 -4 17 -18 17 -14 0
-20 -7 -20 -21 0 -12 -5 -19 -12 -16 -7 2 -12 11 -10 21 2 11 -4 16 -18 16
-14 0 -20 -5 -18 -17 2 -11 -3 -18 -12 -18 -9 0 -14 7 -12 18 2 11 -4 17 -18
17 -14 0 -20 -7 -20 -21 0 -12 -5 -19 -12 -16 -7 2 -12 12 -12 21 1 10 -6 16
-17 16 -13 0 -19 -7 -19 -21 0 -12 -5 -19 -12 -16 -7 2 -12 11 -10 21 2 10 -4
16 -18 16 -13 0 -20 -7 -20 -20 0 -11 -7 -20 -15 -20 -8 0 -15 9 -15 20 0 11
-7 20 -15 20 -10 0 -15 -7 -13 -17 2 -11 -3 -18 -12 -18 -9 0 -14 7 -12 18 2
11 -4 17 -18 17 -13 0 -20 -7 -20 -20 0 -11 -7 -20 -15 -20 -8 0 -15 9 -15 20
0 11 -7 20 -15 20 -8 0 -15 -9 -15 -20 0 -11 -7 -20 -15 -20 -19 0 -19 12 0
74 10 33 16 101 17 205 l2 156 6 -120 c4 -73 9 -112 14 -100 4 11 31 97 60
190 l52 170 34 3 c70 7 74 28 30 157 -16 49 -30 92 -30 97 0 4 38 8 85 8 l85
0 0 -157z"/>
<path d="M1152 1808 c-16 -16 -15 -43 2 -57 10 -8 558 -10 2071 -9 1947 3
2058 4 2069 21 8 12 8 22 0 35 -11 16 -122 17 -2071 20 -1593 1 -2062 -1
-2071 -10z"/>
<path d="M1153 1643 c-16 -6 -17 -45 -1 -61 17 -17 4119 -17 4136 0 17 17 15
55 -4 62 -19 7 -4113 7 -4131 -1z"/>
<path d="M4878 1379 c-156 -23 -253 -135 -278 -321 -28 -209 37 -380 171 -447
55 -28 72 -31 150 -31 221 0 343 120 365 360 7 87 -7 198 -35 264 -27 63 -92
130 -149 154 -57 24 -148 33 -224 21z m145 -90 c55 -15 103 -62 129 -127 19
-48 22 -76 23 -177 0 -134 -15 -196 -63 -252 -75 -87 -240 -98 -327 -22 -58
51 -78 122 -79 269 0 132 11 180 55 242 46 63 165 94 262 67z"/>
<path d="M1170 1333 l0 -48 211 3 210 3 -54 -78 c-349 -499 -387 -558 -387
-595 l0 -38 285 0 285 0 0 40 c0 22 1 43 3 47 1 4 -99 6 -223 4 -187 -3 -222
-1 -214 10 6 8 106 152 222 320 181 261 212 312 212 343 l0 36 -275 0 -275 0
0 -47z"/>
<path d="M2065 1368 c-2 -7 -68 -185 -145 -396 -77 -211 -140 -386 -140 -388
0 -3 23 -4 52 -2 50 3 52 4 60 38 5 19 21 68 35 108 l26 72 167 0 167 0 28
-97 c15 -54 29 -104 31 -111 5 -17 104 -17 104 1 0 7 -58 185 -128 397 l-129
385 -61 3 c-44 2 -64 -1 -67 -10z m126 -285 c32 -98 59 -181 59 -185 0 -5 -59
-8 -131 -8 -101 0 -130 3 -127 13 38 110 134 365 136 362 2 -2 31 -84 63 -182z"/>
<path d="M2590 980 l0 -400 194 0 c192 0 194 0 200 23 3 12 6 32 6 45 0 22 -1
22 -150 22 l-150 0 0 355 0 355 -50 0 -50 0 0 -400z"/>
<path d="M3104 983 l3 -398 49 0 49 0 2 398 3 397 -54 0 -54 0 2 -397z"/>
<path d="M3560 1373 c-106 -37 -170 -115 -170 -208 0 -97 47 -147 224 -237
111 -57 140 -90 132 -147 -8 -50 -32 -81 -83 -103 -35 -15 -56 -18 -92 -13
-44 6 -126 40 -163 67 -22 16 -24 13 -33 -48 l-6 -51 53 -23 c70 -31 197 -39
263 -17 143 49 208 196 136 309 -29 46 -83 84 -206 146 -79 40 -119 82 -119
127 0 109 130 156 254 92 56 -29 69 -26 70 18 0 11 3 30 6 42 5 19 0 24 -47
37 -50 15 -186 21 -219 9z"/>
<path d="M4019 1373 c0 -5 0 -183 0 -398 l0 -390 51 -3 50 -3 0 400 0 401 -50
0 c-27 0 -50 -3 -51 -7z"/>
<path d="M4414 1343 c-15 -21 -84 -102 -153 -181 -69 -79 -127 -149 -129 -156
-3 -13 107 -159 223 -296 124 -146 116 -139 166 -129 24 4 47 8 52 9 17 1 3
23 -65 96 -39 44 -116 132 -170 197 -85 103 -96 121 -85 136 6 10 75 91 152
180 77 89 142 167 143 172 2 5 -21 9 -51 9 -51 0 -56 -2 -83 -37z"/>
</g>
</svg>
